<svg width="252" height="259" viewBox="0 0 252 259" fill="none" xmlns="http://www.w3.org/2000/svg">
<ellipse cx="125.966" cy="129.5" rx="125.38" ry="129.5" fill="#FFC800" fill-opacity="0.25"/>
<ellipse cx="125.966" cy="129.5" rx="105.048" ry="108.5" fill="#FFC800"/>
<path d="M185.93 112.386C173.032 107.075 160.151 101.72 147.262 96.3821C143.838 94.9649 141.448 96.6655 141.448 100.509C141.444 117.504 141.448 134.5 141.448 151.499V152.72H148.989V151.448C148.989 147.821 149.015 144.194 148.973 140.567C148.963 139.706 149.188 139.244 149.978 138.839C161.845 132.765 173.682 126.635 185.549 120.561C187.006 119.815 188.281 118.975 189 117.416V115.392C188.392 113.934 187.383 112.983 185.93 112.386ZM151.763 128.534V107.989L174.125 115.783L151.763 128.534Z" fill="white"/>
<path d="M110.339 79.1703C110.277 84.0999 109.048 88.6787 106.625 92.8964C100.781 103.066 94.9209 113.226 89.0541 123.379C87.8801 125.41 86.1695 125.383 84.9988 123.325C79.2621 113.236 73.4311 103.204 67.8407 93.028C62.891 84.0156 62.4845 74.8109 68.0358 65.8761C73.2229 57.5285 83.054 53.5605 92.2639 55.7739C101.662 58.0346 108.661 65.8593 110.017 75.6477C110.18 76.8151 110.235 77.9961 110.339 79.1703ZM86.8947 91.9752C93.3794 92.1001 98.7811 86.6542 98.947 79.8316C99.1063 73.1846 93.8119 67.4384 87.402 67.3034C80.6865 67.1617 75.2132 72.5671 75.1156 79.4301C75.0181 86.2594 80.2637 91.847 86.8947 91.9752Z" fill="white"/>
<path d="M93.5551 130.822C95.0478 128.227 96.4006 125.839 97.812 123.487C97.9747 123.213 98.4657 123.018 98.8039 123.018C103.721 122.994 108.642 122.903 113.555 123.041C121.221 123.257 127.165 129.85 127.078 137.847C126.993 145.638 120.879 152.056 113.282 152.11C101.984 152.191 90.6867 152.123 79.3857 152.14C75.6361 152.147 72.6929 154.465 71.9189 157.95C70.8652 162.694 74.1921 167.179 78.8849 167.249C82.8654 167.31 86.8493 167.263 90.8331 167.263C102.824 167.263 114.811 167.263 126.801 167.263C127.276 167.263 127.754 167.263 128.125 167.263C128.258 169.908 128.385 172.412 128.518 175.03C128.304 175.04 127.92 175.081 127.536 175.081C111.403 175.084 95.2657 175.094 79.132 175.077C71.2555 175.071 65.0277 169.102 64.2115 160.849C63.4765 153.409 68.7026 146.259 76.0978 144.666C77.2816 144.413 78.5174 144.342 79.7304 144.339C90.6217 144.315 101.516 144.305 112.407 144.339C114.902 144.346 116.98 143.566 118.404 141.397C119.822 139.241 119.985 136.892 118.856 134.561C117.705 132.182 115.764 130.866 113.191 130.842C107.178 130.785 101.162 130.819 95.1453 130.819C94.6998 130.822 94.2543 130.822 93.5551 130.822Z" fill="white"/>
<path d="M135.741 170.232C135.767 164.752 140.011 160.389 145.302 160.406C150.564 160.423 154.841 164.887 154.805 170.32C154.769 175.759 150.457 180.186 145.215 180.169C139.966 180.152 135.715 175.695 135.741 170.232Z" fill="white"/>
<path d="M87.0076 75.1147C89.4565 75.1046 91.4435 77.1595 91.4175 79.6765C91.3915 82.1262 89.4077 84.1743 87.0467 84.1878C84.6271 84.2013 82.6401 82.1194 82.6563 79.5922C82.6726 77.1021 84.5946 75.1248 87.0076 75.1147Z" fill="white"/>
</svg>
