<svg width="251" height="259" viewBox="0 0 251 259" fill="none" xmlns="http://www.w3.org/2000/svg">
<ellipse cx="125.482" cy="129.5" rx="125.38" ry="129.5" fill="#FFC800" fill-opacity="0.25"/>
<ellipse cx="125.481" cy="129.5" rx="105.048" ry="108.5" fill="#FFC800"/>
<path d="M184.23 163.199C188.327 163.349 187.971 163.411 187.99 167.253C187.997 169.128 188.012 171.007 187.982 172.882C187.961 174.409 187.521 174.833 185.998 174.837C182.432 174.852 178.866 174.841 175.63 174.841C174.48 177.137 173.433 179.232 172.375 181.352C172.481 181.359 172.858 181.418 173.235 181.418C177.398 181.425 181.565 181.418 185.727 181.425C187.558 181.429 187.979 181.85 187.986 183.699C187.997 185.805 188.008 187.911 187.982 190.016C187.961 191.533 187.514 191.946 185.987 191.994C185.669 192.005 185.346 191.998 185.028 191.998C145.352 191.998 105.677 191.998 66.0009 191.998C65.5908 191.998 65.1771 191.994 64.7671 191.994C63.5736 191.987 63.0134 191.353 63.0098 190.192C63.0061 187.951 62.9878 185.706 63.0134 183.465C63.0281 181.905 63.5113 181.44 65.0966 181.433C69.1678 181.422 73.2426 181.429 77.3138 181.429C77.8154 181.429 78.3133 181.429 78.6757 181.429C77.6067 179.319 76.5376 177.203 75.3441 174.852C72.2468 174.852 68.776 174.855 65.3053 174.852C63.3539 174.848 63.0134 174.504 63.0061 172.515C62.9988 170.318 63.0024 168.121 63.0061 165.924C63.0098 163.602 63.299 163.312 65.5909 163.294C65.9094 163.291 66.2279 163.294 66.7661 163.294C66.7661 162.719 66.7661 162.192 66.7661 161.665C66.7661 146.925 66.7661 132.185 66.7661 117.449C66.7661 115.321 67.1249 114.955 69.2117 114.955C94.565 114.955 119.915 114.933 145.268 114.962C163.998 114.984 179.221 127.091 183.267 145.251C183.886 148.034 184.054 150.942 184.201 153.802C184.351 156.893 184.23 160.002 184.23 163.199ZM108.734 154.901C133.003 154.901 157.086 154.901 181.092 154.901C181.092 153.081 181.092 151.367 181.092 149.561C180.378 149.561 179.833 149.561 179.287 149.561C170.318 149.561 161.351 149.543 152.382 149.569C149.533 149.576 147.366 148.357 145.718 146.126C144.349 144.273 143.617 142.168 143.595 139.864C143.555 135.927 143.569 131.991 143.562 128.058C143.562 127.571 143.562 127.083 143.562 126.552C118.875 126.552 94.3747 126.552 69.8487 126.552C69.8487 136.059 69.8487 145.493 69.8487 154.93C74.9817 154.93 79.9974 154.93 85.1742 154.93C85.1742 154.37 85.1742 153.883 85.1742 153.392C85.1742 146.892 85.1706 140.391 85.1779 133.895C85.1816 132.287 85.6429 131.771 87.1659 131.767C93.7083 131.753 100.254 131.749 106.797 131.767C108.258 131.771 108.726 132.287 108.73 133.8C108.745 137.597 108.734 141.399 108.734 145.196C108.734 148.397 108.734 151.594 108.734 154.901ZM180.484 146.643C180.484 146.313 180.499 146.178 180.481 146.049C180.444 145.778 180.411 145.504 180.345 145.236C178.61 138.106 175.051 132.042 169.607 127.12C169.164 126.721 168.395 126.512 167.777 126.509C161.146 126.465 154.512 126.479 147.882 126.487C147.443 126.487 147.003 126.534 146.451 126.567C146.451 128.175 146.432 129.676 146.454 131.178C146.502 134.422 146.374 137.685 146.681 140.908C147.044 144.694 149.46 146.643 153.22 146.643C161.772 146.646 170.325 146.643 178.881 146.643C179.371 146.643 179.869 146.643 180.484 146.643ZM105.669 163.236C105.669 153.659 105.669 144.222 105.669 134.803C99.7822 134.803 94.0012 134.803 88.2386 134.803C88.2386 144.336 88.2386 153.773 88.2386 163.236C94.0854 163.236 99.8334 163.236 105.669 163.236ZM181.209 157.988C157.061 157.988 132.97 157.988 108.818 157.988C108.818 159.76 108.818 161.467 108.818 163.199C132.989 163.199 157.075 163.199 181.209 163.199C181.209 161.434 181.209 159.753 181.209 157.988ZM153.063 174.892C134.779 174.892 116.21 174.892 97.9443 174.892C96.802 177.166 95.7329 179.287 94.7188 181.308C115.185 181.308 135.859 181.308 156.251 181.308C155.219 179.235 154.179 177.141 153.063 174.892ZM85.1193 157.995C79.9132 157.995 74.8718 157.995 69.8341 157.995C69.8341 159.797 69.8341 161.503 69.8341 163.199C74.9817 163.199 80.023 163.199 85.1193 163.199C85.1193 161.441 85.1193 159.768 85.1193 157.995ZM94.3893 174.951C89.1649 174.951 84.0356 174.951 78.8881 174.951C79.6825 178.99 83.0069 181.568 87.111 181.414C90.7318 181.282 94.0195 178.382 94.3893 174.951ZM156.625 174.91C156.819 178.221 160.205 181.26 163.83 181.414C167.993 181.59 171.544 178.814 172.075 174.91C166.92 174.91 161.772 174.91 156.625 174.91Z" fill="white"/>
<path d="M147.122 96.4424C147.546 95.8858 147.879 95.4683 148.194 95.0399C152.573 89.1182 156.948 83.1966 161.33 77.275C162.597 75.5611 163.454 75.5574 164.677 77.2676C172.204 87.7999 179.731 98.3284 187.233 108.879C187.581 109.37 187.888 110.029 187.863 110.596C187.848 110.992 187.237 111.68 186.892 111.68C186.31 111.677 185.527 111.391 185.186 110.952C183.488 108.74 181.946 106.407 180.247 104.195C179.794 103.602 179.047 103.089 178.336 102.866C175.722 102.053 173.057 101.401 170.425 100.643C169.722 100.441 169.253 100.504 168.792 101.134C168.118 102.056 167.331 102.891 166.602 103.774C165.969 104.536 165.197 104.917 164.351 104.246C163.425 103.51 163.699 102.661 164.38 101.862C165.42 100.643 166.478 99.438 167.459 98.1746C168.129 97.314 168.909 97.1822 169.886 97.4568C172.076 98.0757 174.273 98.6653 176.861 99.3721C174.675 96.3069 172.706 93.5494 170.663 90.6856C169.011 91.44 167.408 92.1797 165.797 92.9048C164.358 93.5494 163.791 93.3223 163.11 91.8611C162.784 91.158 162.465 90.4549 162.07 89.587C160.69 90.2645 159.361 90.92 158.028 91.5755C157.618 91.7769 157.223 92.0296 156.791 92.1651C153.122 93.3187 150.783 95.992 148.868 99.1231C148.645 99.4857 148.652 100.028 148.667 100.485C148.674 100.786 148.886 101.079 149 101.379C149.337 102.276 149.388 103.177 148.366 103.595C147.316 104.023 146.653 103.455 146.265 102.448C144.749 98.5262 143.215 94.615 141.681 90.7039C141.136 89.3087 140.575 87.9207 140.03 86.5511C139.023 87.5179 138.035 88.4004 137.145 89.3709C136.936 89.598 136.925 90.2095 137.075 90.5171C137.533 91.4583 138.112 92.3445 138.653 93.2454C139.173 94.1097 139.122 94.886 138.328 95.5672C136.797 96.8782 135.274 98.1929 133.751 99.5076C132.982 100.17 132.155 100.324 131.474 99.4783C130.793 98.636 131.148 97.8633 131.906 97.2188C133.158 96.1568 134.399 95.0801 135.673 93.9852C135.076 92.9634 134.579 91.982 133.963 91.0848C133.136 89.8836 133.319 88.9315 134.355 87.9537C135.585 86.7928 136.717 85.5294 137.888 84.3062C138.858 83.2955 138.855 83.2955 138.093 81.8563C136.545 82.4239 134.974 82.9988 133.403 83.5775C131.309 84.3465 131.236 84.3245 129.936 82.4715C129.808 82.2884 129.651 82.1236 129.446 81.8746C125.331 84.0023 121.23 86.108 117.152 88.2503C116.723 88.4774 116.39 88.8985 116.039 89.2574C109.017 96.3399 101.994 103.43 94.9761 110.516C94.6868 110.809 94.4013 111.109 94.0974 111.384C93.4677 111.959 92.7647 112.039 92.1314 111.457C91.4467 110.835 91.4577 110.065 92.0398 109.377C92.5707 108.751 93.1711 108.179 93.7606 107.605C96.5833 104.862 99.4097 102.13 102.32 99.3099C100.266 96.5303 98.3809 93.9742 96.3929 91.2825C95.6936 92.1981 95.1042 92.9927 94.4928 93.7691C93.6105 94.8897 92.816 95.0728 91.8714 94.0804C90.7841 92.9415 89.715 92.751 88.3604 93.4468C87.8808 93.6959 87.3206 93.7874 86.8008 93.9632C85.8562 94.2855 85.1276 94.0547 84.5345 93.2234C83.5826 91.8904 82.5831 90.5977 81.4335 89.0633C81.2065 89.6236 80.9649 89.9642 80.9466 90.3121C80.8661 92.004 80.8111 93.6995 80.8441 95.3878C80.8514 95.7064 81.2358 96.1714 81.5544 96.2996C82.4404 96.6585 83.3776 96.8892 84.3002 97.1456C85.3217 97.4312 85.8525 98.0245 85.7171 99.1414C85.4901 101.049 85.318 102.961 85.08 104.869C84.9629 105.795 84.432 106.447 83.4325 106.315C82.466 106.187 82.0523 105.492 82.1548 104.525C82.3195 102.983 82.5026 101.441 82.693 99.7603C81.7118 99.46 80.7672 99.167 79.8226 98.8777C78.0067 98.3174 77.8566 98.105 77.9005 96.1421C77.9115 95.6478 77.9005 95.1534 77.9005 94.2928C77.4429 94.8567 77.1647 95.1717 76.923 95.5086C73.3534 100.493 69.7911 105.477 66.2252 110.461C66.0128 110.758 65.8115 111.073 65.5589 111.333C64.9621 111.951 64.1603 112.094 63.6295 111.464C63.2743 111.043 63.2743 110.256 63.278 109.633C63.2816 109.329 63.6551 109.029 63.8674 108.732C71.3105 98.3101 78.7573 87.8914 86.204 77.4691C87.6025 75.5098 88.3677 75.4988 89.7919 77.4251C94.3061 83.5298 98.8166 89.6382 103.331 95.7466C103.602 96.1128 103.887 96.4644 104.561 97.3287C104.865 96.7684 105.019 96.2374 105.363 95.8931C114.494 86.6426 123.643 77.4141 132.788 68.182C132.916 68.0501 133.041 67.9183 133.173 67.7901C134.436 66.5743 135.446 66.7537 136.091 68.3834C137.892 72.928 139.657 77.4874 141.432 82.0394C143.113 86.3387 144.789 90.6343 146.47 94.9336C146.635 95.3731 146.843 95.8089 147.122 96.4424Z" fill="white"/>
<path d="M126.044 149.063C123.302 149.063 120.56 149.074 117.821 149.06C116.174 149.052 115.738 148.66 115.734 147.071C115.716 142.182 115.716 137.289 115.734 132.4C115.738 130.826 116.218 130.36 117.792 130.357C123.368 130.346 128.94 130.346 134.516 130.357C136.024 130.36 136.508 130.833 136.511 132.305C136.522 137.242 136.522 142.178 136.511 147.111C136.508 148.657 136.109 149.049 134.545 149.056C131.712 149.074 128.878 149.06 126.044 149.063Z" fill="white"/>
<path d="M168.598 142.12C168.195 142.559 167.91 143.149 167.496 143.259C167.017 143.387 166.277 143.266 165.911 142.951C164.739 141.944 163.685 140.798 162.59 139.699C161.108 138.216 159.628 136.729 158.142 135.25C157.402 134.514 157.073 133.69 157.937 132.884C158.739 132.137 159.519 132.485 160.211 133.177C162.722 135.696 165.248 138.201 167.742 140.736C168.067 141.065 168.247 141.545 168.598 142.12Z" fill="white"/>
<path d="M171.387 135.876C171.102 136.213 170.838 136.788 170.414 136.956C169.993 137.121 169.231 137.07 168.923 136.784C167.247 135.232 165.607 133.628 164.094 131.917C163.791 131.577 163.856 130.478 164.179 130.134C164.508 129.782 165.636 129.632 165.951 129.914C167.723 131.493 169.359 133.221 171.021 134.92C171.197 135.1 171.219 135.422 171.387 135.876Z" fill="white"/>
</svg>
