<svg width="251" height="259" viewBox="0 0 251 259" fill="none" xmlns="http://www.w3.org/2000/svg">
<ellipse cx="125.551" cy="129.5" rx="125.38" ry="129.5" fill="#FFC800" fill-opacity="0.25"/>
<ellipse cx="125.551" cy="129.5" rx="105.048" ry="108.5" fill="#FFC800"/>
<path d="M68.2587 130.887C68.2587 146.602 68.2587 162.111 68.2587 177.715C76.9388 177.715 85.5517 177.715 94.2586 177.715C94.2586 177.094 94.2586 176.553 94.2586 176.012C94.2586 150.033 94.2586 124.058 94.2586 98.0784C94.2586 95.2344 95.0007 94.4789 97.8046 94.4789C116.269 94.4789 134.738 94.4789 153.203 94.4789C156.003 94.4789 156.749 95.2377 156.749 98.0818C156.749 124.061 156.749 150.037 156.749 176.016C156.749 176.556 156.749 177.097 156.749 177.722C165.429 177.722 174.011 177.722 182.705 177.722C182.705 162.168 182.705 146.629 182.705 130.951C182.255 130.931 181.812 130.891 181.368 130.891C176.207 130.887 171.043 130.887 165.882 130.887C165.546 130.887 165.21 130.894 164.875 130.884C163.071 130.84 161.98 129.836 162.007 128.258C162.034 126.734 163.108 125.757 164.851 125.747C168.209 125.73 171.567 125.74 174.925 125.74C177.567 125.74 180.213 125.713 182.856 125.75C185.777 125.794 187.977 127.932 187.98 130.847C188.007 146.501 188.007 162.155 187.983 177.809C187.98 180.791 185.791 182.899 182.789 182.99C182.453 183 182.117 182.997 181.781 182.997C144.261 182.997 106.74 182.997 69.2224 182.99C68.4702 182.99 67.6946 183.007 66.9693 182.842C64.6288 182.312 63.0372 180.29 63.0204 177.806C62.9868 173.316 63.007 168.823 63.007 164.334C63.007 153.421 63.0036 142.512 63.007 131.599C63.007 127.714 64.9982 125.74 68.9034 125.74C74.5278 125.736 80.1522 125.733 85.7733 125.747C86.3106 125.747 86.8814 125.76 87.3817 125.931C88.5268 126.324 89.1715 127.553 88.97 128.765C88.7551 130.041 87.7511 130.87 86.2501 130.874C80.7936 130.894 75.3371 130.884 69.8839 130.884C69.3869 130.887 68.89 130.887 68.2587 130.887ZM112.472 177.752C112.472 177.147 112.472 176.647 112.472 176.15C112.472 167.464 112.472 158.78 112.472 150.094C112.472 147.414 113.328 146.551 116.008 146.548C122.344 146.541 128.68 146.541 135.016 146.548C137.693 146.551 138.552 147.418 138.552 150.094C138.556 158.821 138.552 167.548 138.552 176.278C138.552 176.761 138.552 177.245 138.552 177.755C142.968 177.755 147.185 177.755 151.483 177.755C151.483 151.726 151.483 125.773 151.483 99.7405C134.147 99.7405 116.884 99.7405 99.5473 99.7405C99.5473 125.77 99.5473 151.722 99.5473 177.755C103.832 177.752 108.049 177.752 112.472 177.752ZM117.75 151.779C117.75 160.473 117.75 169.062 117.75 177.728C122.925 177.728 128.062 177.728 133.213 177.728C133.213 169.042 133.213 160.429 133.213 151.779C128.046 151.779 122.975 151.779 117.75 151.779Z" fill="white"/>
<path d="M125.406 58C127.589 58.0235 129.167 58.9805 130.158 60.8373C130.927 62.2778 131.558 63.7955 132.367 65.2092C132.629 65.6658 133.223 66.1057 133.737 66.2165C135.168 66.5288 136.632 66.6698 138.085 66.8679C140.298 67.1667 141.971 68.2144 142.706 70.3936C143.451 72.603 142.857 74.5136 141.202 76.1219C140.117 77.1729 138.985 78.1802 137.981 79.3051C137.629 79.698 137.4 80.4031 137.458 80.9236C137.632 82.5017 137.991 84.0597 138.247 85.6312C138.586 87.713 137.955 89.4691 136.269 90.7451C134.59 92.0143 132.72 92.1923 130.819 91.2756C129.311 90.5503 127.827 89.7679 126.367 88.9453C125.745 88.5961 125.258 88.6062 124.644 88.9554C123.297 89.7209 121.911 90.416 120.534 91.1278C118.576 92.1385 116.635 92.1285 114.849 90.8055C113.032 89.459 112.371 87.6055 112.814 85.3659C112.969 84.5869 112.952 83.7508 113.224 83.0188C114.057 80.7825 113.435 79.1137 111.531 77.7471C110.756 77.1931 110.114 76.4376 109.463 75.7291C106.649 72.6869 108.083 67.9726 112.129 67.0761C113.801 66.7067 115.517 66.5288 117.22 66.3038C117.948 66.2098 118.412 65.9176 118.727 65.2125C119.396 63.725 120.131 62.2644 120.893 60.8205C121.854 59.0006 123.398 58.0672 125.406 58ZM113.452 72.1127C115.044 73.7715 116.498 75.3295 118.009 76.8338C118.882 77.7034 119.255 78.647 119.023 79.8894C118.62 82.0451 118.298 84.2175 117.908 86.5848C119.893 85.5573 121.713 84.7044 123.438 83.6904C124.862 82.8509 126.128 82.8408 127.555 83.6803C129.295 84.7011 131.125 85.5707 133.082 86.5915C132.703 84.2511 132.427 82.1357 131.991 80.0505C131.695 78.6369 132.176 77.6497 133.143 76.6894C134.624 75.2254 136.017 73.6741 137.498 72.1094C136.114 71.8945 134.677 71.4748 133.247 71.4848C130.211 71.505 128.452 70.0712 127.495 67.2775C127.035 65.9378 126.259 64.7088 125.52 63.2213C124.426 65.4073 123.445 67.2977 122.528 69.2217C121.971 70.3868 121.142 71.0181 119.835 71.1726C117.72 71.4244 115.618 71.787 113.452 72.1127Z" fill="white"/>
<path d="M81.1562 86.9205C81.3006 86.0441 81.5625 84.8085 81.6733 83.5627C81.7136 83.1061 81.5088 82.5218 81.2099 82.1659C80.5384 81.3668 79.7123 80.7019 78.9937 79.9363C77.7748 78.6369 77.3752 77.0957 77.9494 75.4033C78.5169 73.7278 79.7056 72.4586 81.4853 72.4283C84.4939 72.378 86.2736 71.0953 87.2675 68.2479C87.8451 66.5925 89.3763 65.8169 91.1828 65.8068C92.9826 65.8001 94.5843 66.5388 95.1283 68.1908C96.1054 71.1591 98.0496 72.1463 101.005 72.4586C104.463 72.8246 105.84 77.0486 103.57 79.7248C102.841 80.5844 101.918 81.2828 101.203 82.1525C100.887 82.5353 100.702 83.1632 100.733 83.6635C100.79 84.6607 101.058 85.6446 101.203 86.6385C101.455 88.3576 100.894 89.8048 99.5372 90.8659C98.1369 91.9605 96.5453 92.1452 94.9167 91.4334C93.8825 90.9834 92.9255 90.3522 91.8879 89.9089C91.5018 89.7444 90.9242 89.7478 90.5347 89.9123C89.4602 90.3723 88.473 91.0372 87.3918 91.4837C84.3596 92.7496 81.1327 90.5469 81.1562 86.9205ZM95.9778 85.9703C94.2385 82.3002 95.3298 79.52 98.6138 77.4751C96.7501 77.0016 94.9134 76.9882 93.7146 76.1051C92.5192 75.2254 91.9685 73.476 91.0955 72.0489C90.6422 72.9589 90.1586 73.795 89.796 74.6814C89.242 76.0312 88.285 76.7263 86.8411 76.8573C85.8774 76.9446 84.9237 77.136 83.9399 77.2837C85.0614 78.6302 86.5154 79.7013 86.9552 81.0948C87.4052 82.5218 86.8612 84.2612 86.7571 85.7856C88.2245 85.198 89.7255 84.1201 91.2164 84.1302C92.7106 84.1369 94.1982 85.2316 95.9778 85.9703Z" fill="white"/>
<path d="M159.878 65.7867C161.594 65.8203 163.159 66.5355 163.696 68.1338C164.7 71.1289 166.654 72.153 169.673 72.4687C173.074 72.8212 174.421 77.0084 172.232 79.6644C171.94 80.0203 171.641 80.4031 171.261 80.6448C169.236 81.9242 169.038 83.6904 169.649 85.8259C170.23 87.8506 169.764 89.6773 167.991 90.97C166.261 92.2292 164.344 92.209 162.712 90.9834C160.53 89.3449 158.733 89.9257 156.621 91.1513C153.495 92.9645 149.828 90.923 149.788 87.4779C149.774 86.2792 150.016 85.0536 150.301 83.8817C150.513 83.0121 150.271 82.4681 149.64 81.9208C148.941 81.3198 148.3 80.6516 147.662 79.9867C146.423 78.6973 146.037 77.1528 146.557 75.4604C147.095 73.7077 148.327 72.4519 150.157 72.4015C153.162 72.3209 154.925 71.0215 155.906 68.1673C156.466 66.5052 158.051 65.79 159.878 65.7867ZM160.019 71.8844C159.918 71.9448 159.818 72.0053 159.717 72.0624C159.277 72.9488 158.8 73.8218 158.411 74.7318C157.863 76.0111 156.943 76.7062 155.553 76.8438C154.576 76.9412 153.609 77.1259 152.105 77.3509C155.788 79.5133 156.608 82.3775 155.18 86.1147C158.266 83.5325 161.235 83.5124 164.216 86.1348C164.096 84.1974 163.552 82.4446 164.018 81.0243C164.478 79.6241 165.963 78.5597 167.242 77.0621C163.152 77.5154 160.855 75.7056 160.019 71.8844Z" fill="white"/>
<path d="M169.746 151.732C168.111 151.732 166.472 151.752 164.837 151.726C163.017 151.699 162.013 150.725 162.003 148.925C161.979 145.567 161.976 142.21 162.006 138.852C162.02 137.203 163.027 136.152 164.666 136.132C168.064 136.092 171.465 136.095 174.863 136.129C176.566 136.146 177.587 137.203 177.597 138.919C177.62 142.233 177.627 145.551 177.593 148.865C177.573 150.718 176.532 151.685 174.659 151.729C174.618 151.729 174.575 151.729 174.534 151.729C172.936 151.732 171.341 151.732 169.746 151.732ZM167.241 146.424C169.001 146.424 170.643 146.424 172.271 146.424C172.271 144.681 172.271 143.036 172.271 141.407C170.549 141.407 168.93 141.407 167.241 141.407C167.241 143.086 167.241 144.698 167.241 146.424Z" fill="white"/>
<path d="M89.0105 143.963C89.0105 145.598 89.0273 147.236 89.0071 148.872C88.9836 150.688 88.0098 151.709 86.2234 151.726C82.8656 151.753 79.5111 151.756 76.1532 151.722C74.5112 151.706 73.4434 150.695 73.4199 149.06C73.3729 145.621 73.3695 142.18 73.4232 138.738C73.4501 137.173 74.5213 136.156 76.0928 136.136C79.5346 136.099 82.973 136.092 86.4148 136.139C87.9762 136.159 88.9668 137.223 89.0004 138.802C89.034 140.521 89.0071 142.243 89.0105 143.963ZM83.7453 146.447C83.7453 144.728 83.7453 143.086 83.7453 141.434C82.006 141.434 80.3606 141.434 78.7388 141.434C78.7388 143.173 78.7388 144.819 78.7388 146.447C80.458 146.447 82.0765 146.447 83.7453 146.447Z" fill="white"/>
<path d="M89.0099 164.764C89.0099 166.443 89.03 168.122 89.0032 169.801C88.9763 171.52 87.9858 172.561 86.2665 172.581C82.9087 172.621 79.5541 172.621 76.1963 172.581C74.4871 172.561 73.4361 171.52 73.416 169.821C73.3757 166.463 73.3757 163.105 73.416 159.751C73.4361 158.021 74.4636 157.011 76.1795 156.994C79.5374 156.964 82.8919 156.964 86.2497 156.991C88.0025 157.004 88.9528 157.991 89.0099 159.727C89.0133 159.811 89.0133 159.895 89.0133 159.979C89.0099 161.577 89.0099 163.169 89.0099 164.764ZM78.6979 162.225C78.6979 163.998 78.6979 165.617 78.6979 167.296C80.4104 167.296 82.0591 167.296 83.738 167.296C83.738 165.57 83.738 163.921 83.738 162.225C82.0188 162.225 80.4037 162.225 78.6979 162.225Z" fill="white"/>
<path d="M161.993 164.818C161.993 163.182 161.98 161.544 161.997 159.909C162.017 157.988 162.947 157.007 164.834 156.994C168.148 156.967 171.466 156.967 174.78 156.997C176.583 157.014 177.577 158.008 177.594 159.825C177.624 163.139 177.628 166.456 177.591 169.77C177.571 171.543 176.519 172.571 174.733 172.587C171.419 172.618 168.101 172.621 164.787 172.587C163.001 172.567 162.02 171.53 161.997 169.73C161.98 168.088 161.997 166.453 161.993 164.818ZM172.315 162.269C170.549 162.269 168.904 162.269 167.238 162.269C167.238 163.998 167.238 165.62 167.238 167.292C168.961 167.292 170.61 167.292 172.315 167.292C172.315 165.6 172.315 163.978 172.315 162.269Z" fill="white"/>
<path d="M120.262 112.685C120.262 114.364 120.289 116.043 120.255 117.718C120.222 119.447 119.235 120.458 117.502 120.475C114.144 120.508 110.79 120.508 107.432 120.475C105.78 120.458 104.712 119.464 104.682 117.819C104.621 114.38 104.621 110.939 104.685 107.497C104.715 105.855 105.793 104.895 107.459 104.881C110.816 104.858 114.171 104.854 117.529 104.881C119.258 104.895 120.225 105.892 120.259 107.648C120.289 109.33 120.262 111.009 120.262 112.685ZM109.964 110.163C109.964 111.872 109.964 113.517 109.964 115.163C111.696 115.163 113.345 115.163 115.034 115.163C115.034 113.46 115.034 111.849 115.034 110.163C113.311 110.163 111.663 110.163 109.964 110.163Z" fill="white"/>
<path d="M130.745 112.618C130.745 110.939 130.718 109.26 130.752 107.584C130.789 105.909 131.759 104.905 133.421 104.888C136.819 104.854 140.218 104.858 143.616 104.888C145.214 104.901 146.285 105.855 146.315 107.44C146.383 110.922 146.383 114.404 146.315 117.886C146.285 119.467 145.214 120.455 143.633 120.475C140.234 120.515 136.836 120.515 133.438 120.475C131.779 120.455 130.789 119.431 130.752 117.782C130.715 116.059 130.745 114.34 130.745 112.618ZM141.057 115.206C141.057 113.447 141.057 111.835 141.057 110.166C139.338 110.166 137.689 110.166 136 110.166C136 111.886 136 113.528 136 115.206C137.723 115.206 139.345 115.206 141.057 115.206Z" fill="white"/>
<path d="M112.528 125.743C114.207 125.743 115.886 125.72 117.562 125.75C119.268 125.78 120.231 126.703 120.248 128.403C120.285 131.801 120.282 135.199 120.251 138.597C120.238 140.255 119.258 141.29 117.592 141.317C114.194 141.37 110.796 141.367 107.398 141.32C105.739 141.296 104.705 140.286 104.678 138.634C104.621 135.236 104.624 131.838 104.674 128.439C104.701 126.714 105.749 125.79 107.492 125.743C107.576 125.74 107.66 125.743 107.743 125.743C109.338 125.74 110.933 125.74 112.528 125.743ZM114.996 136.068C114.996 134.269 114.996 132.62 114.996 130.995C113.234 130.995 111.588 130.995 109.976 130.995C109.976 132.758 109.976 134.413 109.976 136.068C111.696 136.068 113.321 136.068 114.996 136.068Z" fill="white"/>
<path d="M138.579 125.743C140.214 125.743 141.853 125.726 143.488 125.747C145.258 125.77 146.302 126.683 146.329 128.406C146.386 131.804 146.386 135.202 146.329 138.6C146.302 140.313 145.251 141.303 143.511 141.323C140.197 141.364 136.883 141.36 133.569 141.323C131.742 141.303 130.765 140.306 130.752 138.499C130.725 135.185 130.725 131.871 130.752 128.557C130.765 126.703 131.705 125.773 133.545 125.747C135.221 125.723 136.9 125.743 138.579 125.743ZM135.966 136.055C137.689 136.055 139.344 136.055 141.06 136.055C141.06 134.346 141.06 132.69 141.06 131.008C139.324 131.008 137.645 131.008 135.966 131.008C135.966 132.751 135.966 134.369 135.966 136.055Z" fill="white"/>
</svg>
