<svg width="251" height="259" viewBox="0 0 251 259" fill="none" xmlns="http://www.w3.org/2000/svg">
<ellipse cx="125.38" cy="129.5" rx="125.38" ry="129.5" fill="#FFC800" fill-opacity="0.25"/>
<ellipse cx="125.38" cy="129.5" rx="105.048" ry="108.5" fill="#FFC800"/>
<path d="M62 108.166C62 105.969 62 103.771 62 101.574C62.4077 99.0985 62.6201 96.5693 63.2573 94.1548C68.2621 75.2147 80.2662 63.235 99.26 58.3571C101.601 57.7566 104.04 57.5369 106.433 57.1414C108.63 57.1414 110.827 57.1414 113.024 57.1414C113.334 57.2122 113.645 57.322 113.959 57.3489C119.609 57.8176 125.038 59.1897 130.092 61.7433C146.307 69.9438 155.453 83.0808 157.254 101.215C157.372 102.399 157.755 102.897 158.902 103.29C172.493 107.936 181.358 117.204 185.481 130.939C186.233 133.446 186.507 136.1 187 138.685C187 140.719 187 142.755 187 144.789C186.927 145.101 186.819 145.411 186.79 145.728C186.26 151.261 184.642 156.456 181.922 161.292C181.505 162.034 181.461 162.672 181.683 163.46C183.292 169.158 184.869 174.866 186.448 180.574C186.561 180.979 186.634 181.397 186.746 181.902C186.441 181.839 186.285 181.817 186.133 181.775C180.308 180.166 174.476 178.582 168.665 176.919C167.611 176.619 166.815 176.792 165.821 177.22C162.665 178.577 159.471 179.878 156.2 180.916C154.098 181.582 151.837 181.751 149.647 182.141C147.614 182.141 145.577 182.141 143.544 182.141C143.231 182.068 142.924 181.956 142.606 181.927C126.571 180.388 112.853 169.224 108.034 153.724C107.758 152.838 107.375 152.523 106.464 152.462C99.2185 151.976 92.4315 149.94 86.1011 146.363C85.7105 146.144 85.0879 146.129 84.6338 146.251C80.2809 147.413 75.9426 148.629 71.5994 149.825C68.5258 150.672 65.4521 151.514 62.2344 152.398C62.3613 151.842 62.4321 151.456 62.5371 151.078C64.4169 144.271 66.2797 137.457 68.2108 130.665C68.5111 129.613 68.4598 128.8 67.9081 127.824C65.6962 123.915 64.0874 119.752 63.1914 115.343C62.708 112.968 62.3906 110.558 62 108.166ZM72.698 141.871C73.0716 141.783 73.2595 141.747 73.4426 141.695C77.3976 140.607 81.3624 139.549 85.3003 138.404C86.2525 138.126 86.9629 138.253 87.7881 138.778C96.9944 144.632 106.992 146.546 117.687 144.481C139.777 140.216 154.271 118.051 149.083 96.0078C145.482 80.7127 135.868 70.4272 120.773 66.1085C105.769 61.8141 92.268 65.4591 81.1427 76.433C67.5126 89.88 65.4911 110.497 75.8376 126.847C76.3332 127.631 76.4724 128.307 76.2087 129.22C75.0149 133.353 73.8992 137.511 72.698 141.871ZM157.152 110.395C155.702 121.454 151.185 130.861 143.417 138.614C135.656 146.366 126.242 150.865 115.28 152.293C115.397 152.681 115.466 152.945 115.556 153.201C119.916 165.518 132.377 174.507 145.48 174.803C152.555 174.964 159.061 173.152 164.962 169.231C165.658 168.77 166.27 168.628 167.108 168.89C169.393 169.6 171.715 170.198 174.024 170.831C174.735 171.026 175.457 171.185 176.295 171.39C175.474 168.418 174.771 165.621 173.909 162.874C173.521 161.636 173.68 160.711 174.383 159.61C182.977 146.156 180.941 128.959 169.469 117.863C165.98 114.489 161.932 112.001 157.152 110.395Z" fill="white"/>
<path d="M102.325 93.7175C99.901 93.7175 97.5891 93.7175 95.1648 93.7175C95.0208 91.2175 95.6506 88.9348 96.8493 86.845C99.9206 81.4887 104.618 78.7543 110.772 79.1938C116.812 79.6259 121.173 82.8534 123.345 88.5344C125.555 94.3107 124.334 99.589 120.091 104.071C118.419 105.839 116.563 107.448 114.705 109.027C113.724 109.862 113.238 110.736 113.365 112.052C113.485 113.297 113.39 114.559 113.39 115.897C110.951 115.897 108.614 115.897 106.063 115.897C106.063 114.73 106.053 113.532 106.065 112.335C106.08 110.59 105.624 108.629 106.271 107.157C106.917 105.685 108.668 104.694 109.945 103.505C111.612 101.952 113.336 100.461 114.95 98.8541C117.139 96.6715 117.645 93.3732 116.331 90.6194C115.02 87.8704 112.096 86.1981 109.063 86.4642C106.051 86.7303 103.483 88.8884 102.674 91.8596C102.518 92.4358 102.45 93.0412 102.325 93.7175Z" fill="white"/>
<path d="M113.292 130.592C110.894 130.592 108.582 130.592 106.168 130.592C106.168 128.195 106.168 125.826 106.168 123.378C108.512 123.378 110.851 123.378 113.292 123.378C113.292 125.731 113.292 128.102 113.292 130.592Z" fill="white"/>
</svg>
