<svg width="80" height="63" viewBox="0 0 80 63" fill="none" xmlns="http://www.w3.org/2000/svg">
<path d="M7.3 62.3L3.1 54.9C6.36667 53.3667 9.5 51.2 12.5 48.4C15.5 45.6667 17.9667 42.7667 19.9 39.7C21.9 36.7 22.9667 34 23.1 31.6C21.1 32.5333 18.8 33 16.2 33C12.1333 33 8.46667 31.6333 5.2 28.9C2 26.1 0.400001 22.1333 0.400001 17C0.400001 12.0667 2.06667 8.03333 5.4 4.9C8.73333 1.76667 12.9667 0.199999 18.1 0.199999C23.8333 0.199999 28.4333 2.16667 31.9 6.1C35.3667 10.0333 37.1 15.0333 37.1 21.1C37.1 27.3 35.6333 33.1 32.7 38.5C29.8333 43.9667 26.1 48.7333 21.5 52.8C16.9667 56.9333 12.2333 60.1 7.3 62.3ZM50.0422 62.3L45.8422 54.9C49.1089 53.3667 52.2422 51.2 55.2422 48.4C58.2422 45.6667 60.7089 42.7667 62.6422 39.7C64.6422 36.7 65.7089 34 65.8422 31.6C63.8422 32.5333 61.5422 33 58.9422 33C54.8755 33 51.2089 31.6333 47.9422 28.9C44.7422 26.1 43.1422 22.1333 43.1422 17C43.1422 12.0667 44.8089 8.03333 48.1422 4.9C51.4755 1.76667 55.7089 0.199999 60.8422 0.199999C66.5755 0.199999 71.1755 2.16667 74.6422 6.1C78.1089 10.0333 79.8422 15.0333 79.8422 21.1C79.8422 27.3 78.3755 33.1 75.4422 38.5C72.5755 43.9667 68.8422 48.7333 64.2422 52.8C59.7089 56.9333 54.9755 60.1 50.0422 62.3Z" fill="#FFC800" fill-opacity="0.3"/>
</svg>
